<svg xmlns="http://www.w3.org/2000/svg" xmlns:xlink="http://www.w3.org/1999/xlink" width="300" height="207" viewBox="0 0 299 207"><defs><clipPath id="b"><path d="M0 0h299v208H0z"/></clipPath><filter id="a" width="100%" height="100%" x="0%" y="0%" filterUnits="objectBoundingBox"><feColorMatrix in="SourceGraphic" values="0 0 0 0 1 0 0 0 0 1 0 0 0 0 1 0 0 0 1 0"/></filter><mask id="d"><g filter="url(#a)"><path d="M0 0h299v207H0z" style="fill:#000;fill-opacity:.14902;stroke:none"/></g></mask><g id="c" clip-path="url(#b)"><path d="m172.137 94.992-.82 15.606-12.028 2.465 10.934-4.38Zm0 0" style="stroke:none;fill-rule:nonzero;fill:#000;fill-opacity:1"/></g></defs><path d="M80.953 188.719H8.016s-1.48-21.727 7.27-21.973c8.745-.246 7.76 9.629 18.726-3.95 10.965-13.577 24.27-12.835 25.996-4.812 1.722 8.024-3.328 14.442 5.914 12.465 9.238-1.972 22.547 3.211 15.031 18.27m0 0" style="stroke:none;fill-rule:nonzero;fill:#6c63ff;fill-opacity:1"/><path d="m43.25 188.723-.246-.012c.574-14.3 3.566-23.492 5.973-28.68 2.613-5.636 5.132-7.918 5.156-7.941l.164.183c-.024.024-2.512 2.282-5.106 7.88-2.394 5.167-5.367 14.32-5.941 28.57M69.648 188.75l-.234-.066c2.848-9.797 9.555-15.98 9.621-16.04l.168.18c-.066.063-6.726 6.203-9.555 15.926M19.504 188.734l-.246-.035c.969-6.98-.778-12.398-2.414-15.715-1.77-3.59-3.79-5.547-3.809-5.566l.172-.18c.02.02 2.07 2.012 3.86 5.637 1.648 3.348 3.41 8.816 2.437 15.86m0 0" style="stroke:none;fill-rule:nonzero;fill:#f2f2f2;fill-opacity:1"/><path d="M90.852 189.047H.148l-.023-.309c-.05-.765-1.207-18.828 4.633-25.27 1.308-1.44 2.879-2.198 4.676-2.25 3.808-.109 6.203 1.321 8.132 2.47 3.637 2.16 6.04 3.59 14.778-7.231 9.468-11.723 19.68-14.242 25.55-12.84 3.797.906 6.41 3.465 7.176 7.028.723 3.367.493 6.535.309 9.082-.2 2.722-.356 4.87.762 5.847.93.813 2.789.887 5.851.23 6.227-1.327 14.914-.19 19.274 5.454 2.343 3.035 4.191 8.554-.325 17.605Zm-90.086-.66H90.44c3.368-6.84 3.473-12.621.301-16.727-4-5.176-12.39-6.539-18.613-5.207-3.324.711-5.309.59-6.422-.383-1.367-1.191-1.2-3.488-.988-6.394.183-2.5.41-5.617-.293-8.895-.711-3.3-3.145-5.676-6.684-6.523-5.683-1.356-15.61 1.133-24.883 12.613-9.097 11.266-11.84 9.637-15.629 7.383-1.953-1.16-4.171-2.477-7.777-2.375-1.61.047-3.023.73-4.207 2.031-5.25 5.793-4.61 22.035-4.48 24.477m0 0" style="stroke:none;fill-rule:nonzero;fill:#cfcce0;fill-opacity:1"/><path d="M286.207 188.719H213.27s-1.477-21.727 7.27-21.973c8.745-.246 7.76 9.629 18.726-3.95 10.964-13.577 24.27-12.835 25.996-4.812s-3.328 14.442 5.914 12.465c9.238-1.972 22.547 3.211 15.031 18.27m0 0" style="stroke:none;fill-rule:nonzero;fill:#6c63ff;fill-opacity:1"/><path d="m248.508 188.723-.246-.012c.574-14.3 3.562-23.492 5.968-28.68 2.614-5.636 5.133-7.918 5.16-7.941l.165.183c-.028.024-2.516 2.282-5.11 7.88-2.394 5.167-5.367 14.32-5.937 28.57M274.906 188.75l-.238-.066c2.848-9.797 9.555-15.98 9.625-16.04l.164.18c-.066.063-6.723 6.203-9.55 15.926M224.758 188.734l-.246-.035c.968-6.98-.778-12.398-2.414-15.715-1.77-3.59-3.79-5.547-3.809-5.566l.172-.18c.02.02 2.07 2.012 3.86 5.637 1.648 3.348 3.41 8.816 2.437 15.86m0 0" style="stroke:none;fill-rule:nonzero;fill:#f2f2f2;fill-opacity:1"/><path d="M296.105 189.047h-90.703l-.02-.309c-.054-.765-1.21-18.828 4.634-25.27 1.304-1.44 2.879-2.198 4.675-2.25 3.805-.109 6.2 1.321 8.13 2.47 3.636 2.16 6.042 3.59 14.78-7.231 9.465-11.723 19.68-14.242 25.551-12.84 3.793.906 6.407 3.465 7.172 7.028.727 3.367.492 6.535.309 9.082-.2 2.722-.356 4.87.762 5.847.93.813 2.789.887 5.851.23 6.227-1.327 14.914-.19 19.274 5.454 2.347 3.035 4.195 8.554-.325 17.605Zm-90.082-.66H295.7c3.363-6.84 3.469-12.621.301-16.727-4-5.176-12.395-6.539-18.617-5.207-3.324.711-5.305.59-6.422-.383-1.363-1.191-1.2-3.488-.984-6.394.18-2.5.406-5.617-.297-8.895-.711-3.3-3.145-5.676-6.68-6.523-5.687-1.356-15.613 1.133-24.887 12.613-9.097 11.266-11.836 9.637-15.629 7.383-1.953-1.16-4.172-2.477-7.777-2.375-1.61.047-3.023.73-4.203 2.031-5.254 5.793-4.61 22.035-4.48 24.477m0 0" style="stroke:none;fill-rule:nonzero;fill:#cfcce0;fill-opacity:1"/><path d="M140.57 127.027c-6.394 0-12 6.688-15.09 16.68q-.328 1.052-.617 2.148a62.4 62.4 0 0 0-1.922 15.672c0 19.024 7.907 34.5 17.63 34.5 9.718 0 17.624-15.476 17.624-34.5 0-19.023-7.906-34.5-17.625-34.5m0 68.453c-9.422 0-17.082-15.234-17.082-33.953a62.2 62.2 0 0 1 1.946-15.734q.273-1.031.582-2.02c3.007-9.71 8.406-16.199 14.554-16.199 9.418 0 17.082 15.235 17.082 33.953 0 18.72-7.664 33.953-17.082 33.953m0 0" style="stroke:none;fill-rule:nonzero;fill:#3f3d56;fill-opacity:1"/><path d="M144.805 181.477c-3.371 0-6.012-8.766-6.012-19.95s2.64-19.945 6.012-19.945c3.37 0 6.011 8.762 6.011 19.945s-2.64 19.95-6.011 19.95m0-39.348c-2.961 0-5.465 8.883-5.465 19.398s2.504 19.399 5.465 19.399c2.965 0 5.465-8.883 5.465-19.399 0-10.515-2.5-19.398-5.465-19.398m0 0" style="stroke:none;fill-rule:nonzero;fill:#3f3d56;fill-opacity:1"/><path d="M147.813 161.527c0-2.53-1.043-4.582-2.325-4.582-1.281 0-2.324 2.051-2.324 4.582 0 2.532 1.043 4.582 2.324 4.582 1.282 0 2.325-2.05 2.325-4.582m0 0" style="stroke:none;fill-rule:nonzero;fill:#cfcce0;fill-opacity:1"/><path d="m140.434 99.371 37.441-.137v14.782l-37.441 1.511ZM108.453 149.496l-.543-.031 1.653-30.106h33.875v.551h-33.356ZM108.398 198.21l-19.132-3.284.113-.535 19.133 3.285ZM112.258 205.063l.047-.547 23.23 1.918-.047.546Zm0 0" style="stroke:none;fill-rule:nonzero;fill:#3f3d56;fill-opacity:1"/><path d="M166.191 149.523a49 49 0 0 0-.578 2.02l-.574.062-17.773 1.98-40.723-4.105 42.363-2.19 16.75 2.167Zm0 0" style="stroke:none;fill-rule:nonzero;fill:#3f3d56;fill-opacity:1"/><path d="M156.879 51.54s-5.918-2.118-9.723 6.355c-3.808 8.472-9.726 17.789-9.726 17.789l3.382.847s.844-5.93 2.961-6.777l-.847 7.625s25.37 8.894 36.785-.848l-.422-2.965s1.691.426 1.691 2.965l1.27-1.27s-1.27-2.542-5.074-5.929c-2.5-2.227-3.356-6.457-3.653-9.102a11.03 11.03 0 0 0-2.53-6c-2.528-2.933-7.138-6.054-14.114-2.69m0 0" style="stroke:none;fill-rule:nonzero;fill:#2f2e41;fill-opacity:1"/><path d="m124.172 59.535-2.461-25.738s-4.922-13.965 2.46-12.871c7.38 1.097 3.005 11.773 3.005 11.773l4.101 26.836ZM105.04 176.45l-2.735 9.308 5.195 4.383 3.824-11.774ZM126.082 183.297l-2.73 9.855 9.562 6.024s.274-11.227 1.64-13.418Zm0 0" style="stroke:none;fill-rule:nonzero;fill:#ffb9b9;fill-opacity:1"/><path d="m137.836 130.723-1.367 2.738s-15.578-7.117-19.68 2.738c-4.098 9.86-13.117 41.074-13.117 41.074l7.926 3.286 14.484-33.133 33.07-.82 1.368-18.348Zm0 0" style="stroke:none;fill-rule:nonzero;fill:#2f2e41;fill-opacity:1"/><path d="M149.316 135.379s-22.414-4.656-24.054 6.57c-1.637 11.227.82 32.586 1.093 33.133.274.547-1.093 10.676-1.093 10.676l9.84 1.37s6.285-29.843 3.554-37.51l18.492-1.145c6.383-.399 11.598-5.45 11.965-11.848.14-2.445-.472-4.668-2.582-5.902-6.558-3.832-18.582-3.832-18.582-3.832ZM105.86 185.484s-1.915-4.105-4.65-2.187c-2.73 1.914-9.019 6.023-9.019 6.023s-9.722 3.43-1.09 5.75c7.676 2.063 9.563 1.64 9.563 1.64s6.29 1.099 7.11.548c.816-.547 1.363-9.309 1.363-9.309s-3.825-.82-3.278-2.465M127.176 193.973s-2.73-3.832-4.645-2.188c-1.914 1.64-8.746 6.297-8.746 6.297s-11.48 3.285-1.367 6.297 21.316 2.465 21.59 1.367c.273-1.094-.547-9.035-.547-9.035s-5.738-.274-6.285-2.738m0 0" style="stroke:none;fill-rule:nonzero;fill:#2f2e41;fill-opacity:1"/><path d="M169.813 68.844c0-5.446-4.407-9.86-9.84-9.86-5.434 0-9.84 4.414-9.84 9.86 0 5.441 4.406 9.855 9.84 9.855 5.433 0 9.84-4.414 9.84-9.855m0 0" style="stroke:none;fill-rule:nonzero;fill:#ffb9b9;fill-opacity:1"/><path d="M152.867 73.223s-.547 11.226-3.281 12.05c-2.73.82-10.383 9.856-6.832 12.594 3.555 2.738 24.05.82 24.05.82l-1.91-14.238s-4.374-3.011-.82-8.215Zm0 0" style="stroke:none;fill-rule:nonzero;fill:#ffb9b9;fill-opacity:1"/><path d="m152.594 91.844-1.914-9.035-6.285-2.465-5.192 12.047s-5.879 39.02-4.238 39.566a7.4 7.4 0 0 0 2.87.41s8.747-2.738 11.481-1.37c2.73 1.37 16.942 2.464 16.942 2.464s9.84-5.203 9.293-9.856c-.547-4.656 0-30.668 0-30.668l-1.227-11.636-10.785 1.691Zm0 0" style="stroke:none;fill-rule:nonzero;fill:#cfcce0;fill-opacity:1"/><path d="m144.668 81.71-.273-1.64-7.653-9.312-4.37-15.606-10.661 4.106 7.652 18.894 10.934 13.965Zm0 0" style="stroke:none;fill-rule:nonzero;fill:#cfcce0;fill-opacity:1"/><path d="M147.047 70.023s3.383-4.66 6.344-5.507c2.957-.848 3.382-5.082 3.382-5.082s7.61 8.468 12.262 8.894c4.649.422.422-10.168.422-10.168L161 56.043l-8.031.848-6.344 4.234Zm0 0" style="stroke:none;fill-rule:nonzero;fill:#2f2e41;fill-opacity:1"/><path d="m178.695 133.336-.265-11.238h-25.434l-.812 30.129-.547-.016.828-30.66h26.496l.008.265.273 11.5ZM178.148 117.992h-.546V97.09l8.824 2.566-.153.528-8.125-2.364Zm0 0" style="stroke:none;fill-rule:nonzero;fill:#3f3d56;fill-opacity:1"/><path d="M180.746 132.777c-6.394 0-12 6.688-15.09 16.68q-.33 1.052-.617 2.148a62.5 62.5 0 0 0-1.922 15.672c0 19.024 7.906 34.5 17.63 34.5 9.718 0 17.628-15.476 17.628-34.5 0-19.023-7.91-34.5-17.629-34.5m0 68.453c-9.418 0-17.082-15.234-17.082-33.953a62 62 0 0 1 1.95-15.734q.267-1.031.577-2.02c3.008-9.71 8.407-16.199 14.555-16.199 9.418 0 17.082 15.235 17.082 33.953 0 18.72-7.664 33.953-17.082 33.953m0 0" style="stroke:none;fill-rule:nonzero;fill:#3f3d56;fill-opacity:1"/><path d="M184.98 187.227c-3.37 0-6.011-8.766-6.011-19.95s2.64-19.945 6.011-19.945 6.012 8.762 6.012 19.945-2.64 19.95-6.012 19.95m0-39.348c-2.96 0-5.464 8.883-5.464 19.398s2.504 19.399 5.464 19.399c2.965 0 5.47-8.883 5.47-19.399 0-10.515-2.505-19.398-5.47-19.398m0 0" style="stroke:none;fill-rule:nonzero;fill:#3f3d56;fill-opacity:1"/><path d="M187.988 167.277c0-2.53-1.039-4.582-2.324-4.582-1.281 0-2.324 2.051-2.324 4.582 0 2.532 1.043 4.582 2.324 4.582 1.285 0 2.324-2.05 2.324-4.582m0 0" style="stroke:none;fill-rule:nonzero;fill:#cfcce0;fill-opacity:1"/><path d="m181.977 96.633 5.738 2.191-1.094 3.012-4.644-1.914ZM159.29 120.184v4.379h16.284v-4.09ZM117.473 117.992v4.38h16.285v-4.09ZM173.133 25.277H61.727V0h111.406Zm-110.75-.656H172.48V.656H62.383Zm0 0" style="stroke:none;fill-rule:nonzero;fill:#3f3d56;fill-opacity:1"/><path d="M70.574 8.535h12.45v12.473h-12.45Zm0 0" style="stroke:none;fill-rule:nonzero;fill:#6c63ff;fill-opacity:1"/><path d="M81.387 19.367H68.28V6.238h13.106Zm-12.453-.656H80.73V6.895H68.934ZM102.031 8.863h58.324v.657h-58.324ZM102.031 13.46h58.324v.657h-58.324ZM102.031 18.055h58.324v.656h-58.324ZM147.266 107.363h-.133v-3.648a2.11 2.11 0 0 0-2.106-2.11h-7.71a2.11 2.11 0 0 0-2.11 2.11v20.004a2.11 2.11 0 0 0 2.11 2.11h7.71a2.11 2.11 0 0 0 2.106-2.11v-13.762h.133Zm0 0" style="stroke:none;fill-rule:nonzero;fill:#3f3d56;fill-opacity:1"/><path d="M142.527 107.82a1.291 1.291 0 1 0-2.582 0c0 .711.578 1.293 1.293 1.293.711 0 1.29-.582 1.29-1.293m0 0" style="stroke:none;fill-rule:nonzero;fill:#d0cde1;fill-opacity:1"/><path d="m173.934 120.445-25.805-.484s-14.406 3.305-12.48-3.918c1.925-7.219 12.019-1.648 12.019-1.648l27.074-1.02Zm0 0" style="stroke:none;fill-rule:nonzero;fill:#ffb9b9;fill-opacity:1"/><path d="m171.316 83.219 2.461-1.918s4.098-2.192 4.918 5.476 6.832 33.133.82 33.407-21.32.546-21.32.546l1.64-8.488 12.575-.82Zm0 0" style="stroke:none;fill-rule:nonzero;fill:#cfcce0;fill-opacity:1"/><use xlink:href="#c" mask="url(#d)"/></svg>