<svg xmlns="http://www.w3.org/2000/svg" xmlns:xlink="http://www.w3.org/1999/xlink" width="300" height="691" viewBox="0 0 300 241"><defs><clipPath id="b"><path d="M0 0h300v241H0z"/></clipPath><filter id="a" width="100%" height="100%" x="0%" y="0%" filterUnits="objectBoundingBox"><feColorMatrix in="SourceGraphic" values="0 0 0 0 1 0 0 0 0 1 0 0 0 0 1 0 0 0 1 0"/></filter><mask id="d"><g filter="url(#a)"><path d="M0 0h300v241H0z" style="fill:#000;fill-opacity:.101961;stroke:none"/></g></mask><g id="c" clip-path="url(#b)"><path d="M260.781 180.477v22.77l-22.726-29.892h17.312Zm0 0" style="stroke:none;fill-rule:nonzero;fill:#000;fill-opacity:1"/></g></defs><path d="M118.45 126.254c0-18.723-15.235-33.902-34.028-33.902s-34.024 15.18-34.024 33.902 15.23 33.898 34.024 33.898c18.793 0 34.027-15.175 34.027-33.898m0 0" style="stroke:none;fill-rule:nonzero;fill:#e6e6e6;fill-opacity:1"/><path d="m75.23 175.758 8.368 5.168v-34.93l-9.38-5.793a3.63 3.63 0 0 1-1.59-2.105c.9-.172 1.825 0 2.602.476l8.368 5.168V130.2c0-2.62.324-5.23.96-7.773.641 2.543.962 5.152.962 7.773v22.106l12.347-7.621a6.1 6.1 0 0 1 3.29-.907 6.04 6.04 0 0 1-2.278 2.532l-13.36 8.25v82.605h-1.921v-53.988l-9.38-5.793a3.62 3.62 0 0 1-1.59-2.106 3.64 3.64 0 0 1 2.602.48m0 0" style="stroke:none;fill-rule:nonzero;fill:#ccc;fill-opacity:1"/><path d="M68.05 129.133c0-18.723-15.234-33.903-34.023-33.903C15.234 95.23 0 110.41 0 129.133s15.234 33.898 34.027 33.898c18.79 0 34.024-15.176 34.024-33.898m0 0" style="stroke:none;fill-rule:nonzero;fill:#e6e6e6;fill-opacity:1"/><path d="m43.219 178.637-8.371 5.164v-34.93l9.382-5.789a3.63 3.63 0 0 0 1.59-2.11 3.68 3.68 0 0 0-2.601.481l-8.371 5.168v-13.543c0-2.621-.32-5.23-.961-7.773a32 32 0 0 0-.957 7.773v22.106l-12.348-7.621a6.07 6.07 0 0 0-3.289-.907 6.04 6.04 0 0 0 2.277 2.531l13.36 8.247v79.914h1.918v-51.293l9.382-5.793a3.63 3.63 0 0 0 1.59-2.106 3.64 3.64 0 0 0-2.601.48m0 0" style="stroke:none;fill-rule:nonzero;fill:#ccc;fill-opacity:1"/><path d="M117.328 58.367C117.328 26.133 91.098 0 58.742 0S.16 26.133.16 58.367c0 32.238 26.227 58.371 58.582 58.371s58.586-26.133 58.586-58.37m0 0" style="stroke:none;fill-rule:nonzero;fill:#e6e6e6;fill-opacity:1"/><path d="M74.57 143.602 60.16 152.5V92.36l16.153-9.973a6.24 6.24 0 0 0 2.734-3.63 6.3 6.3 0 0 0-4.477.829L60.16 88.48V65.16c0-4.512-.555-9.004-1.652-13.383a55 55 0 0 0-1.656 13.383v38.067l-21.258-13.13a10.5 10.5 0 0 0-5.66-1.554 10.37 10.37 0 0 0 3.918 4.355l23 14.204v130.37h3.308v-81.097l16.153-9.973a6.24 6.24 0 0 0 2.734-3.625 6.27 6.27 0 0 0-4.477.825m0 0" style="stroke:none;fill-rule:nonzero;fill:#ccc;fill-opacity:1"/><path d="M23.363 237.164H299.91v.695H23.363Zm0 0" style="stroke:none;fill-rule:nonzero;fill:#3f3d56;fill-opacity:1"/><path d="m214.965 113.2 13.726-7.895 7.922 13.675-13.722 7.895Zm0 0" style="stroke:none;fill-rule:nonzero;fill:#ff6584;fill-opacity:1"/><path d="m228.863 129.727-8.273-14.282 14.332-8.242 8.273 14.277Zm-7.316-14.024 7.574 13.07 13.117-7.546-7.574-13.07Zm0 0" style="stroke:none;fill-rule:nonzero;fill:#2f2e41;fill-opacity:1"/><path d="M222.676 161.469c0-3.66-2.98-6.625-6.653-6.625-3.671 0-6.652 2.965-6.652 6.625s2.98 6.629 6.652 6.629 6.653-2.97 6.653-6.63m0 0" style="stroke:none;fill-rule:nonzero;fill:#d0cde1;fill-opacity:1"/><path d="M220.926 168.445c-3.867 0-7.004-3.125-7.004-6.976s3.137-6.977 7.004-6.977 7 3.125 7 6.977c0 3.851-3.133 6.976-7 6.976m0-13.254c-3.48 0-6.301 2.813-6.301 6.278 0 3.469 2.82 6.277 6.3 6.277s6.302-2.809 6.302-6.277c0-3.465-2.82-6.278-6.301-6.278m0 0" style="stroke:none;fill-rule:nonzero;fill:#2f2e41;fill-opacity:1"/><path d="M257.984 238.75H193.57a2.97 2.97 0 0 1-2.972-2.965v-59.64a2.97 2.97 0 0 1 2.972-2.965h64.414a2.97 2.97 0 0 1 2.973 2.965v59.64a2.97 2.97 0 0 1-2.973 2.965m0 0" style="stroke:none;fill-rule:nonzero;fill:#6c63ff;fill-opacity:1"/><path d="M230.328 240.844h-9.101a2.973 2.973 0 0 1-2.977-2.965v-63.504a2.973 2.973 0 0 1 2.977-2.965h9.101a2.976 2.976 0 0 1 2.977 2.965v63.504a2.976 2.976 0 0 1-2.977 2.965M275.098 167.277c-.38 6.153-8.72 10.653-8.72 10.653s-7.73-5.477-7.355-11.63c.375-6.152 8.72-10.652 8.72-10.652s7.73 5.477 7.355 11.63m0 0" style="stroke:none;fill-rule:nonzero;fill:#3f3d56;fill-opacity:1"/><path d="M275.473 186.473c-6.176-.356-10.72-8.653-10.72-8.653s5.474-7.718 11.65-7.363c6.175.356 10.718 8.652 10.718 8.652s-5.473 7.72-11.648 7.364m0 0" style="stroke:none;fill-rule:nonzero;fill:#3f3d56;fill-opacity:1"/><use xlink:href="#c" mask="url(#d)"/><path d="M280.078 219.45a2.96 2.96 0 0 1-2.375-1.173l-47.351-62.27a2.954 2.954 0 0 1 .574-4.152l6.972-5.265a2.984 2.984 0 0 1 4.172.574l47.352 62.266a2.96 2.96 0 0 1-.574 4.156l-6.977 5.266a2.94 2.94 0 0 1-1.793.597m0 0" style="stroke:none;fill-rule:nonzero;fill:#6c63ff;fill-opacity:1"/><path d="m249.125 180.121 12-9.055 9.09 11.954-11.996 9.054Zm0 0" style="stroke:none;fill-rule:nonzero;fill:#3f3d56;fill-opacity:1"/><path d="m195.305 140.766 4.101-15.254 15.309 4.09-4.102 15.25Zm0 0" style="stroke:none;fill-rule:nonzero;fill:#d0cde1;fill-opacity:1"/><path d="m204.117 147.133-15.984-4.27 4.285-15.925 15.984 4.269Zm-15.125-4.762 14.633 3.906 3.918-14.578-14.633-3.906Zm0 0" style="stroke:none;fill-rule:nonzero;fill:#2f2e41;fill-opacity:1"/><path d="M136.785 184.148a3.958 3.958 0 0 0-.406-6.07l-6.43-51.629-8.304 2.461 8.964 50.242a3.98 3.98 0 0 0 .86 5.23 4.013 4.013 0 0 0 5.316-.234M144.484 233.496h4.856l2.312-18.668h-7.168Zm0 0" style="stroke:none;fill-rule:nonzero;fill:#ffb8b8;fill-opacity:1"/><path d="M158.71 237.992h-15.269v-5.879h9.91c2.962 0 5.36 2.39 5.36 5.34Zm0 0" style="stroke:none;fill-rule:nonzero;fill:#2f2e41;fill-opacity:1"/><path d="m110.89 225.96 4.555 1.688 8.7-16.695-6.723-2.492Zm0 0" style="stroke:none;fill-rule:nonzero;fill:#ffb8b8;fill-opacity:1"/><path d="m122.652 235.113-14.308-5.304 2.054-5.508 9.29 3.441a5.334 5.334 0 0 1 3.152 6.867Zm0 0" style="stroke:none;fill-rule:nonzero;fill:#2f2e41;fill-opacity:1"/><path d="M144.953 103.895c0-5.055-4.11-9.153-9.183-9.153-5.075 0-9.184 4.098-9.184 9.153 0 5.054 4.11 9.152 9.184 9.152s9.183-4.098 9.183-9.152m0 0" style="stroke:none;fill-rule:nonzero;fill:#ffb8b8;fill-opacity:1"/><path d="M121.402 127.383c-.289-8.43 8.606-14.278 16.086-10.332.953.504 10.793 8.832 11.164 14.008.371 5.171 1.114 13.671 1.114 13.671l10.386 77.235-22.254-1.11 2.688-22.53-14.465 22.91-17.523-5.555 21.511-61.711s-8.27-13.813-8.707-26.586m0 0" style="stroke:none;fill-rule:nonzero;fill:#2f2e41;fill-opacity:1"/><path d="m121.578 130.316 1.43 18.508c.031.403.367.711.77.711h6.288a.77.77 0 0 0 .711-1.066l-7.714-18.508a.78.78 0 0 0-.895-.453.774.774 0 0 0-.59.808m0 0" style="stroke:none;fill-rule:nonzero;fill:#2f2e41;fill-opacity:1"/><path d="M153.867 180.941a3.96 3.96 0 0 0 .844-3.25 3.97 3.97 0 0 0-1.961-2.734l-12.45-50.523-7.96 3.414 14.808 48.851a3.984 3.984 0 0 0 1.47 5.098 4.013 4.013 0 0 0 5.25-.856m0 0" style="stroke:none;fill-rule:nonzero;fill:#ffb8b8;fill-opacity:1"/><path d="M133.445 119.973s-2.593 5.172 0 14.41c2.598 9.238 4.453 17 4.453 17s5.934-3.696 8.532-2.586c2.593 1.105-4.11-24.629-4.11-24.629s-4.05-8.629-8.875-4.195M137.926 105.324c.125-1.902 2.527-1.965 4.437-1.984 1.91-.016 4.192.05 5.274-1.52.715-1.035.578-2.476-.012-3.586-.59-1.113-1.562-1.968-2.516-2.789-2.464-2.125-5.004-4.23-7.964-5.59s-6.426-1.91-9.497-.82c-3.77 1.344-8.867 8.242-9.308 12.207-.438 3.965 1.152 8.004 3.832 10.965 2.68 2.965 8.816 1.77 12.676 2.824-2.348-3.312-.801-9.324 2.96-10.87Zm0 0" style="stroke:none;fill-rule:nonzero;fill:#2f2e41;fill-opacity:1"/></svg>