<svg xmlns="http://www.w3.org/2000/svg" width="300" height="691" viewBox="0 0 300 308"><path d="M216.027 72.957h-1.687v-46.21C214.34 11.972 202.36 0 187.578 0H89.602C74.82 0 62.836 11.973 62.836 26.746v253.52c0 14.773 11.984 26.746 26.766 26.746h97.972c14.785 0 26.766-11.973 26.766-26.746V105.852h1.687Zm0 0" style="stroke:none;fill-rule:nonzero;fill:#3f3d56;fill-opacity:1"/><path d="M208.852 24.953V282.06c0 11.199-9.086 20.277-20.293 20.28H88.574c-11.21 0-20.3-9.077-20.304-20.28V24.953c.003-11.203 9.093-20.281 20.304-20.281h12.13a9.63 9.63 0 0 0 .929 9.016 9.66 9.66 0 0 0 8 4.265h57.004a9.66 9.66 0 0 0 7.996-4.265 9.63 9.63 0 0 0 .93-9.016h12.992c11.207.004 20.293 9.078 20.297 20.277Zm0 0" style="stroke:none;fill-rule:nonzero;fill:#fff;fill-opacity:1"/><path d="M184.066 173.047H95.22a1.644 1.644 0 0 1-1.645-1.64v-22.028c0-.906.739-1.64 1.645-1.645h88.847c.91.004 1.645.739 1.649 1.645v22.027a1.653 1.653 0 0 1-1.649 1.645ZM95.22 148.395a.986.986 0 0 0-.989.984v22.027c0 .543.442.985.989.985h88.847a.986.986 0 0 0 .989-.985V149.38a.986.986 0 0 0-.989-.984Zm0 0" style="stroke:none;fill-rule:nonzero;fill:#e6e6e6;fill-opacity:1"/><path d="M122.695 155.668a1.151 1.151 0 1 0 0 2.3h54.297a1.147 1.147 0 0 0 1.196-1.105 1.155 1.155 0 0 0-1.106-1.195h-.05ZM122.695 162.574a1.151 1.151 0 1 0 0 2.301h54.297a1.152 1.152 0 0 0 .09-2.3h-.05ZM184.066 209.758H95.22a1.647 1.647 0 0 1-1.645-1.645V186.09c0-.906.739-1.645 1.645-1.645h88.847c.91 0 1.645.739 1.649 1.645v22.023a1.65 1.65 0 0 1-1.649 1.645M95.22 185.102a.99.99 0 0 0-.989.988v22.023c0 .547.442.989.989.989h88.847a.987.987 0 0 0 .989-.989V186.09a.99.99 0 0 0-.989-.988Zm0 0" style="stroke:none;fill-rule:nonzero;fill:#e6e6e6;fill-opacity:1"/><path d="M122.695 192.496c-.636 0-1.152.516-1.152 1.152 0 .637.516 1.149 1.152 1.149h54.297c.625 0 1.137-.504 1.145-1.129a1.15 1.15 0 0 0-1.106-1.172ZM122.695 199.402c-.636 0-1.152.516-1.152 1.153 0 .636.516 1.148 1.152 1.148h54.297c.625 0 1.137-.504 1.145-1.129a1.15 1.15 0 0 0-1.106-1.172ZM184.066 246.586H95.22a1.644 1.644 0 0 1-1.645-1.64v-22.028c0-.906.739-1.64 1.645-1.645h88.847c.91.004 1.645.739 1.649 1.645v22.027a1.653 1.653 0 0 1-1.649 1.645ZM95.22 221.934a.986.986 0 0 0-.989.984v22.027c0 .543.442.985.989.985h88.847a.986.986 0 0 0 .989-.985v-22.027a.986.986 0 0 0-.989-.984Zm0 0" style="stroke:none;fill-rule:nonzero;fill:#e6e6e6;fill-opacity:1"/><path d="M122.695 229.328a1.151 1.151 0 1 0 0 2.3h54.297a1.152 1.152 0 0 0 .09-2.3h-.05ZM122.695 236.234a1.151 1.151 0 1 0 0 2.301h54.297a1.152 1.152 0 0 0 .09-2.3h-.05ZM299.203 307.816H.785c-.433 0-.785-.203-.785-.453s.352-.449.785-.449h298.418c.434 0 .785.2.785.45s-.351.452-.785.452M12.566 290.207a8.43 8.43 0 0 0 8.13-1.434c2.847-2.386 3.741-6.32 4.468-9.964l2.148-10.774-4.5 3.094c-3.234 2.226-6.542 4.523-8.78 7.746-2.239 3.223-3.22 7.625-1.419 11.113" style="stroke:none;fill-rule:nonzero;fill:#e6e6e6;fill-opacity:1"/><path d="M13.262 304.004c-.567-4.125-1.149-8.297-.75-12.465.351-3.7 1.48-7.312 3.781-10.277a17.2 17.2 0 0 1 4.387-3.973c.441-.277.843.418.406.695a16.26 16.26 0 0 0-6.434 7.754c-1.398 3.563-1.625 7.442-1.382 11.223.144 2.285.457 4.559.765 6.828.05.211-.07.43-.281.492a.4.4 0 0 1-.492-.277m0 0" style="stroke:none;fill-rule:nonzero;fill:#f2f2f2;fill-opacity:1"/><path d="M17.336 297.39a6.22 6.22 0 0 0 5.402 2.786c2.73-.133 5.012-2.04 7.063-3.848l6.066-5.351-4.015-.192c-2.887-.14-5.852-.27-8.602.621-2.754.89-5.29 3.031-5.79 5.875" style="stroke:none;fill-rule:nonzero;fill:#e6e6e6;fill-opacity:1"/><path d="M11.66 306.371c2.727-4.82 5.887-10.176 11.535-11.887a12.9 12.9 0 0 1 4.852-.5c.515.043.387.836-.129.793a11.98 11.98 0 0 0-7.742 2.047c-2.184 1.485-3.883 3.551-5.32 5.738-.883 1.34-1.672 2.743-2.461 4.137-.25.446-.989.125-.735-.328m0 0" style="stroke:none;fill-rule:nonzero;fill:#f2f2f2;fill-opacity:1"/><path d="M113.215 160.258a6.907 6.907 0 0 0-6.91-6.906 6.907 6.907 0 1 0 0 13.812 6.91 6.91 0 0 0 6.91-6.906m0 0" style="stroke:none;fill-rule:nonzero;fill:#6c63ff;fill-opacity:1"/><path d="M102.996 158.969c-.082 0-.144.515-.144 1.148 0 .637.062 1.153.144 1.153h6.793c.082.011.145-.497.148-1.133a2.5 2.5 0 0 0-.144-1.168Zm0 0" style="stroke:none;fill-rule:nonzero;fill:#e6e6e6;fill-opacity:1"/><path d="M113.215 197.102a6.91 6.91 0 0 0-6.91-6.907 6.91 6.91 0 0 0-6.91 6.907 6.91 6.91 0 0 0 6.91 6.906 6.91 6.91 0 0 0 6.91-6.906m0 0" style="stroke:none;fill-rule:nonzero;fill:#6c63ff;fill-opacity:1"/><path d="M102.996 195.813c-.082 0-.144.515-.144 1.148 0 .637.062 1.152.144 1.152h6.793c.082.012.145-.496.148-1.133a2.54 2.54 0 0 0-.144-1.167Zm0 0" style="stroke:none;fill-rule:nonzero;fill:#e6e6e6;fill-opacity:1"/><path d="M113.215 233.93a6.906 6.906 0 0 0-6.91-6.903 6.906 6.906 0 0 0-6.91 6.903 6.907 6.907 0 0 0 6.91 6.906c3.816 0 6.91-3.09 6.91-6.906m0 0" style="stroke:none;fill-rule:nonzero;fill:#6c63ff;fill-opacity:1"/><path d="M102.996 232.64c-.082 0-.144.516-.144 1.153 0 .633.062 1.152.144 1.152h6.793c.082.008.145-.5.148-1.132a2.55 2.55 0 0 0-.144-1.172ZM160.887 110.875a1.94 1.94 0 0 1-1.735-1.059 22.86 22.86 0 0 0-13.562-11.41 26 26 0 0 0-3.633-.82l-.25-.04 12.934-40.41.218.009c25.125 6.824 39.504 26.949 43.309 32.953.297.465.379 1.03.23 1.558a1.93 1.93 0 0 1-1.003 1.215l-35.633 17.797c-.274.137-.57.207-.875.207m0 0" style="stroke:none;fill-rule:nonzero;fill:#e6e6e6;fill-opacity:1"/><path d="M238.453 196.98a4.007 4.007 0 0 1 5.496-2.758l9.633-10.495 1.797 7.18-9.422 8.863a4.032 4.032 0 0 1-7.504-2.793ZM259.14 301.664h-5.882l-2.801-22.687h8.688Zm0 0" style="stroke:none;fill-rule:nonzero;fill:#feb8b8;fill-opacity:1"/><path d="M260.645 299.742H249.05a7.385 7.385 0 0 0-7.387 7.383v.238h18.977Zm0 0" style="stroke:none;fill-rule:nonzero;fill:#2f2e41;fill-opacity:1"/><path d="m292.941 295.836-5.503 2.09-10.672-20.219 8.12-3.078Zm0 0" style="stroke:none;fill-rule:nonzero;fill:#feb8b8;fill-opacity:1"/><path d="m293.664 293.508-10.836 4.11a7.38 7.38 0 0 0-4.285 9.523l.086.222 17.742-6.73ZM273.566 226.203l4.88 26.227s13.238 36.902 12.308 37.832-13.703 4.18-13.008 2.09c.7-2.09-15.328-33.422-15.328-33.422Zm0 0" style="stroke:none;fill-rule:nonzero;fill:#2f2e41;fill-opacity:1"/><path d="M253.79 178.543s-9.849 12.863-8.56 13.566c1.293.7 6.29 4.422 6.29 4.422l5.085-13.949Zm0 0" style="stroke:none;fill-rule:nonzero;fill:#e4e4e4;fill-opacity:1"/><path d="M251.04 191.527s-1.63 12.067-.93 14.621c.695 2.551.23 74.965-.235 76.125-.46 1.16-1.855 5.106-1.16 6.965.7 1.856 10.219 6.496 11.613 4.871 1.395-1.62 11.613-60.808 11.613-60.808s14.399-35.742 11.149-39.223c-3.25-3.48-32.05-2.55-32.05-2.55m0 0" style="stroke:none;fill-rule:nonzero;fill:#2f2e41;fill-opacity:1"/><path d="M283.313 102.586c0-6.281-5.094-11.371-11.38-11.371-6.285 0-11.382 5.09-11.382 11.37 0 6.282 5.097 11.376 11.383 11.376s11.378-5.094 11.378-11.375m0 0" style="stroke:none;fill-rule:nonzero;fill:#feb8b8;fill-opacity:1"/><path d="M260.043 128.29a8.05 8.05 0 0 1 2.594-4.77l2.074-6.336h12.191l3.399 5.328c3.676 1.578 6.398 4.09 6.504 7.043.558 1.965-1.86 64.293-2.555 66.613-.207.676-2.984 1.035-6.89 1.195-3.583.149-8.11.125-12.454.028-7.195-.168-13.902-.555-15.031-.758-2.555-.465 9.914-66.88 10.168-68.344m0 0" style="stroke:none;fill-rule:nonzero;fill:#e4e4e4;fill-opacity:1"/><path d="M270.82 210.941a4.004 4.004 0 0 0 .793-6.093l6.727-12.551-7.371.672-5.262 11.816a4.027 4.027 0 0 0-.18 5.348 4.04 4.04 0 0 0 5.297.808Zm0 0" style="stroke:none;fill-rule:nonzero;fill:#feb8b8;fill-opacity:1"/><path d="M271.941 121.434s-10.683 4.41-6.734 15.55c3.945 11.141 8.36 24.371 8.36 24.371s-5.575 29.938-5.575 31.102c0 1.16-3.484 7.426-2.09 8.586 1.395 1.164 10.684 3.484 10.914 2.324a80 80 0 0 1 2.555-7.894c.465-.926 11.383-29.938 9.988-32.493-1.027-1.878-1.925-19.093-2.332-28.05a14.73 14.73 0 0 0-7.683-12.407c-2.164-1.148-4.684-1.77-7.403-1.09m0 0" style="stroke:none;fill-rule:nonzero;fill:#e4e4e4;fill-opacity:1"/><path d="M276.313 107.672c-.864-.399-1.868-.484-2.801-.73-3.344-.887-5.582-4.184-4.867-7.172.132-.38.19-.778.175-1.18-.125-.887-1.16-1.457-2.156-1.66-.992-.2-2.05-.172-3-.496a4.06 4.06 0 0 1-2.652-3.184 5.9 5.9 0 0 1 1.004-3.96l.359.901a3.37 3.37 0 0 0 1.176-1.53c.789.093 1.48.577 1.84 1.292.578.297.66-.922 1.296-1.101.278-.032.555.027.793.171 1.286.524 2.774.075 4.153-.214 2.39-.496 4.86-.5 7.25-.008 1.582.332 3.152.906 4.285 1.926a8.8 8.8 0 0 1 2.004 3.007c1.215 2.668 2.015 5.559 1.617 8.41a11.27 11.27 0 0 1-3.215 6.31c-.918.921-3.914 4.14-5.554 3.593-2.067-.692.722-3.254-1.707-4.375m0 0" style="stroke:none;fill-rule:nonzero;fill:#2f2e41;fill-opacity:1"/><path d="M142.64 115.105a3.456 3.456 0 0 0-3.456-3.457 3.456 3.456 0 1 0 0 6.91 3.455 3.455 0 0 0 3.457-3.453m0 0" style="stroke:none;fill-rule:nonzero;fill:#3f3d56;fill-opacity:1"/><path d="M115.977 110.824c-.317 0-.63-.078-.91-.226L79.64 91.922a1.944 1.944 0 0 1-.75-2.73 78.5 78.5 0 0 1 17.718-19.864c12.235-9.687 26.149-14.55 41.36-14.469a65.8 65.8 0 0 1 16.886 2.286l.22.058-12.938 40.41-.184-.027a29 29 0 0 0-3.516-.313c-13.164-.37-18.87 8.586-20.71 12.454a1.9 1.9 0 0 1-1.133.996q-.3.1-.617.101m0 0" style="stroke:none;fill-rule:nonzero;fill:#6c63ff;fill-opacity:1"/><path d="m154.8 57.352-9.144 40.851a26 26 0 0 0-3.668-.832l12.809-40.02Zm0 0" style="stroke:none;fill-rule:nonzero;fill:#3f3d56;fill-opacity:1"/></svg>