<?xml version="1.0" standalone="no"?>
<!DOCTYPE svg PUBLIC "-//W3C//DTD SVG 20010904//EN"
 "http://www.w3.org/TR/2001/REC-SVG-20010904/DTD/svg10.dtd">
<svg version="1.0" xmlns="http://www.w3.org/2000/svg"
 width="1024.000000pt" height="1024.000000pt" viewBox="0 0 1024.000000 1024.000000"
 preserveAspectRatio="xMidYMid meet">

<g transform="translate(0.000000,1024.000000) scale(0.100000,-0.100000)"
fill="#000000" stroke="none">
<path d="M3387 8679 c-19 -11 -14 -29 8 -29 14 0 28 27 17 34 -4 2 -15 0 -25
-5z"/>
<path d="M3280 8625 c-5 -14 -14 -25 -20 -25 -15 0 -12 -38 4 -47 18 -10 1
-37 -31 -47 -16 -5 -26 0 -42 20 -12 15 -21 35 -21 45 0 24 -51 26 -104 4 -36
-15 -41 -35 -8 -35 21 0 0 -23 -25 -26 -95 -15 -113 -16 -113 -6 0 6 -18 17
-41 23 -33 10 -42 10 -49 0 -4 -8 -12 -11 -18 -7 -15 9 -80 18 -157 22 -97 5
-162 11 -183 18 -14 5 -13 3 2 -9 11 -8 26 -15 33 -15 19 0 16 -18 -4 -23 -45
-13 -93 -17 -93 -9 0 14 -90 23 -133 13 -20 -5 -39 -5 -42 -1 -8 14 -163 3
-187 -12 -19 -13 -19 -16 -7 -37 8 -13 37 -34 64 -47 28 -14 70 -38 95 -54 25
-16 59 -36 75 -45 17 -8 44 -28 62 -44 18 -15 57 -43 87 -62 31 -19 56 -40 56
-48 0 -15 54 -86 102 -135 25 -25 33 -28 73 -24 25 3 45 4 45 2 0 -2 -9 -26
-20 -54 -29 -74 -24 -98 22 -104 18 -2 17 -15 -1 -21 -20 -6 -20 -8 -6 -35 8
-16 15 -38 15 -49 0 -11 11 -33 26 -50 20 -25 24 -37 19 -65 -7 -32 -5 -35 22
-38 l28 -3 0 -80 c1 -44 3 -143 5 -220 4 -109 2 -139 -7 -138 -17 4 -16 -16 1
-23 8 -3 11 -15 9 -29 -4 -18 2 -27 26 -39 37 -20 41 -57 11 -96 -36 -46 -24
-104 33 -165 19 -20 19 -43 3 -150 -3 -16 -8 -57 -11 -90 -3 -33 -11 -62 -17
-66 -6 -4 -11 -62 -13 -140 -2 -74 -7 -195 -11 -269 -4 -74 -7 -151 -6 -170 3
-337 0 -387 -26 -432 -14 -24 -14 -34 -3 -75 8 -27 16 -61 18 -78 5 -32 39
-109 61 -137 11 -14 10 -29 -12 -95 -17 -55 -23 -92 -19 -120 3 -22 1 -43 -3
-46 -5 -3 -9 -132 -8 -287 1 -227 -2 -279 -12 -266 -19 27 -25 3 -14 -55 6
-32 18 -60 30 -69 18 -14 18 -18 3 -70 -8 -30 -16 -68 -17 -85 -2 -16 -6 -42
-11 -57 -4 -18 -3 -28 4 -28 7 0 9 -15 5 -42 -10 -83 -10 -93 6 -93 10 0 17
14 20 45 7 57 15 69 40 63 26 -7 25 -13 -3 -55 -13 -19 -27 -47 -31 -61 -3
-15 -14 -35 -24 -45 -17 -18 -22 -45 -10 -58 4 -4 12 5 17 20 6 14 12 26 14
26 11 0 -4 -86 -20 -117 -16 -30 -20 -62 -22 -158 -1 -66 -4 -131 -5 -145 -3
-21 -33 -106 -61 -172 -5 -13 -2 -18 9 -18 14 0 16 -8 10 -52 -8 -64 -33 -113
-59 -113 -10 0 -20 -6 -23 -13 -2 -6 1 -12 7 -12 5 0 -1 -22 -14 -49 -14 -27
-25 -56 -25 -65 0 -24 19 -19 30 8 5 13 14 27 19 31 14 8 14 -20 1 -46 -8 -13
-7 -19 0 -19 13 0 -49 -61 -93 -92 -35 -25 -65 -78 -43 -78 8 0 23 12 34 27
10 14 22 22 25 17 3 -5 -17 -39 -44 -74 -26 -36 -49 -71 -49 -79 0 -16 -57
-96 -117 -166 -68 -79 -70 -81 -76 -106 -3 -14 -15 -34 -27 -46 -11 -12 -20
-26 -20 -30 0 -4 -12 -21 -26 -38 -15 -16 -37 -46 -49 -65 -39 -58 -195 -213
-277 -275 -49 -36 -78 -64 -78 -76 0 -11 7 -19 15 -19 8 0 24 -5 35 -12 24
-15 90 0 168 40 43 22 55 24 61 13 5 -8 16 -11 25 -8 8 3 18 2 21 -4 4 -5 15
1 25 13 14 18 20 20 33 10 11 -10 17 -9 27 3 7 8 20 15 28 15 9 0 29 12 44 27
24 23 28 24 28 9 0 -17 1 -17 22 -2 62 44 126 76 156 76 17 0 32 4 32 9 0 6 8
9 18 9 9 -1 27 2 38 6 32 10 40 -21 12 -44 -13 -10 -20 -21 -17 -24 9 -9 47 9
104 50 45 33 55 36 100 31 44 -4 55 -1 92 25 35 26 53 31 113 34 40 2 78 8 85
14 19 15 127 9 121 -7 -3 -7 1 -10 10 -6 19 7 18 -15 -3 -35 -16 -16 -15 -17
2 -21 11 -2 21 2 23 8 2 6 9 11 15 11 19 0 110 65 156 111 26 26 53 36 106 38
28 2 55 7 61 12 10 8 44 3 44 -6 0 -1 -38 -42 -85 -90 -82 -85 -102 -115 -53
-81 12 9 30 16 39 16 9 0 22 7 29 15 12 14 30 25 115 68 21 11 51 28 66 39 19
14 32 17 43 11 15 -8 15 -11 -1 -26 -10 -10 -58 -47 -108 -82 -49 -36 -120
-90 -156 -120 -36 -31 -90 -71 -119 -89 -29 -18 -49 -36 -44 -39 14 -8 67 17
106 52 36 31 54 38 60 22 2 -4 32 6 68 25 247 125 380 184 414 184 10 0 32 12
49 26 22 19 38 24 57 20 17 -3 39 3 61 16 19 11 62 31 97 43 35 12 68 27 74
33 7 7 24 6 57 -4 58 -17 61 -17 61 1 0 8 12 21 27 28 22 12 33 12 72 0 47
-14 91 -11 91 7 0 5 18 13 41 16 42 7 72 29 66 48 -2 6 -9 11 -15 11 -13 0
-62 53 -62 66 0 4 -12 14 -27 21 -14 7 -31 22 -37 33 -6 11 -16 24 -23 30 -6
5 -13 19 -15 30 -3 16 -10 19 -33 17 -36 -4 -58 17 -130 123 -27 39 -68 92
-92 120 -23 27 -43 56 -43 65 0 8 -12 29 -26 45 -35 40 -75 130 -68 149 9 23
19 20 32 -10 15 -31 32 -23 32 17 0 31 -32 103 -50 114 -6 4 -8 11 -5 16 4 5
-1 12 -9 15 -9 3 -16 15 -16 26 0 27 43 21 49 -7 2 -11 6 -22 10 -25 4 -3 15
-16 24 -30 l17 -24 0 22 c0 29 -35 100 -67 133 -25 28 -27 41 -22 189 2 65
-10 235 -20 280 -10 50 -7 62 14 53 14 -5 21 20 16 51 -1 5 1 16 5 25 12 29 3
105 -15 124 -15 16 -16 26 -7 85 5 37 9 105 8 151 -1 71 2 89 20 114 20 27 20
34 10 81 -15 65 -16 69 -23 81 -4 6 -9 38 -13 72 -6 53 -3 70 19 122 31 74 32
95 6 88 -17 -4 -20 1 -23 37 -3 39 15 93 37 108 6 4 12 3 13 -3 5 -14 32 10
32 29 0 8 15 30 33 48 17 18 43 47 57 63 14 17 29 31 33 31 5 0 22 9 38 21 16
11 32 18 37 15 4 -2 41 7 82 21 41 14 89 27 105 30 17 3 35 9 41 14 9 7 105
59 110 59 0 0 -1 -14 -4 -30 -2 -17 -15 -39 -28 -49 -32 -25 -33 -55 -1 -46
12 4 36 18 54 31 17 13 44 29 58 34 23 9 28 7 32 -9 4 -16 9 -17 40 -8 19 6
37 17 40 24 3 7 17 13 32 13 20 0 23 3 11 10 -11 7 -8 11 15 20 17 6 45 12 62
13 38 2 39 5 16 24 -16 12 -11 13 37 8 30 -3 94 -7 141 -10 96 -5 93 -8 104
67 8 55 17 70 36 63 22 -8 62 -87 48 -96 -7 -4 -8 -9 -1 -13 6 -3 14 -1 17 5
4 5 12 8 19 6 23 -9 121 13 133 29 11 15 24 16 110 9 54 -5 112 -9 128 -10 25
-2 30 -6 30 -29 -1 -27 9 -34 20 -16 5 8 11 8 19 1 14 -12 36 4 36 26 0 7 9
13 19 13 11 0 22 6 24 13 3 6 6 2 6 -10 1 -16 7 -23 21 -23 13 0 20 -7 20 -18
0 -10 6 -19 14 -19 8 0 12 6 9 14 -10 24 12 13 41 -22 16 -19 36 -35 44 -35
20 0 125 -111 128 -137 3 -17 -6 -16 -30 2 -11 8 -34 15 -50 15 l-31 -1 38
-32 c37 -32 45 -54 28 -72 -5 -6 -12 -47 -16 -93 -3 -47 -14 -102 -26 -129
-29 -68 -19 -140 27 -187 19 -19 34 -42 34 -51 0 -27 -18 -16 -25 15 -4 17
-10 30 -15 30 -14 0 -17 -73 -4 -111 22 -63 3 -375 -22 -365 -29 11 -33 -75
-4 -104 11 -11 20 -23 20 -26 0 -3 13 -24 30 -47 27 -38 30 -51 33 -137 2 -53
10 -106 17 -119 17 -32 18 -89 3 -96 -7 -2 -24 0 -38 5 -22 8 -25 7 -25 -11 0
-11 7 -22 15 -25 9 -4 15 -19 15 -40 0 -19 3 -34 8 -34 12 0 4 -90 -12 -131
-13 -32 -14 -43 -4 -59 10 -16 9 -23 -8 -42 -18 -20 -37 -83 -48 -163 -5 -36
-35 -95 -47 -95 -7 0 -10 -3 -6 -6 3 -3 -6 -28 -19 -55 -25 -49 -25 -80 0 -60
21 17 7 -44 -15 -68 -10 -11 -19 -24 -19 -29 0 -16 -65 -68 -108 -87 -44 -19
-62 -40 -62 -72 1 -14 9 -9 34 20 34 38 46 45 46 26 0 -12 -58 -87 -95 -123
-11 -11 -27 -30 -35 -42 -9 -12 -70 -79 -137 -147 -67 -69 -125 -136 -128
-149 -6 -22 -4 -23 40 -22 40 2 45 0 40 -17 -8 -25 10 -24 58 1 23 13 56 20
90 20 29 0 57 4 63 10 5 5 39 11 75 14 69 6 99 13 99 26 0 14 51 21 66 9 12
-10 53 -9 94 2 9 2 16 -4 18 -18 4 -28 12 -28 63 -2 23 11 47 18 55 15 7 -3
16 -1 19 4 4 6 26 10 50 10 29 0 63 10 102 30 65 34 78 36 99 16 8 -8 39 -18
69 -21 53 -7 66 -6 110 10 16 5 17 5 5 -4 -8 -6 -10 -11 -4 -11 6 0 21 11 34
25 13 14 28 24 34 24 27 -4 96 15 113 31 10 9 25 17 33 17 8 0 25 3 38 7 33
11 27 -10 -14 -46 -38 -34 -77 -101 -72 -124 2 -11 12 -7 38 15 19 17 43 30
52 31 9 0 18 4 20 9 2 6 30 6 73 1 38 -5 72 -6 75 -2 3 4 19 8 35 8 17 1 44 3
60 4 17 1 47 -1 67 -5 32 -7 40 -4 63 21 26 28 26 28 138 25 165 -5 175 -5
181 -12 4 -3 25 -3 49 1 29 6 50 4 69 -6 35 -18 72 -18 88 1 9 11 16 13 24 5
15 -15 57 -12 77 6 14 13 21 13 37 3 25 -16 153 -1 160 19 2 6 -2 12 -10 12
-7 0 -24 19 -38 41 -14 23 -42 51 -64 62 -21 12 -50 28 -64 36 -14 8 -40 15
-56 15 -40 2 -109 44 -102 62 3 8 -10 30 -29 49 -19 19 -35 39 -35 45 0 6 -8
10 -17 9 -50 -6 -93 33 -134 124 -10 23 -17 27 -36 22 -27 -6 -73 35 -73 67 0
11 -5 28 -11 40 -6 11 -13 32 -15 46 -6 33 -30 71 -50 79 -8 3 -14 16 -14 28
0 13 -4 26 -9 30 -6 3 -6 17 -1 34 4 16 5 32 2 36 -4 3 -8 26 -9 51 -2 25 -16
68 -32 98 -29 54 -44 106 -31 106 4 0 17 -9 30 -20 13 -11 27 -20 32 -20 4 0
8 -9 8 -20 0 -11 -7 -20 -16 -20 -8 0 -12 -5 -9 -10 4 -7 17 -4 36 7 25 15 28
19 14 29 -8 6 -15 20 -15 31 0 11 -10 42 -21 69 -16 36 -19 52 -11 65 9 13 4
32 -24 86 -27 53 -34 76 -29 103 14 94 27 234 29 310 1 54 8 99 19 124 15 35
16 53 1 108 -3 11 5 22 23 32 l28 15 -25 9 c-30 12 -52 -2 -43 -26 4 -11 -2
-8 -15 7 -24 27 -25 28 -22 90 1 31 8 49 22 61 l21 16 -30 65 c-45 97 -46 103
-23 148 11 22 20 60 20 83 0 24 8 72 16 108 19 74 22 94 23 133 1 18 6 27 17
27 13 0 15 6 10 28 -4 15 -11 56 -17 92 -6 36 -17 83 -24 105 -19 58 -30 169
-16 161 6 -4 9 -12 6 -17 -4 -5 -1 -9 5 -9 9 0 10 14 5 48 -7 51 -9 352 -2
417 2 22 0 45 -4 50 -29 39 -44 200 -20 215 9 5 14 49 17 144 4 115 1 148 -17
213 -14 54 -19 91 -14 118 15 89 26 162 28 190 4 43 -12 126 -29 152 -22 35
-18 80 10 98 32 21 40 45 21 59 -13 9 -14 17 -5 40 6 16 10 36 8 45 -1 9 2 34
6 56 5 22 10 58 12 80 7 82 13 131 19 155 19 76 19 78 -17 37 -18 -20 -37 -37
-41 -37 -12 0 -1 58 14 76 8 10 9 18 2 25 -22 22 23 202 58 226 9 7 30 33 47
57 28 43 94 106 134 127 10 5 16 15 12 20 -3 6 3 20 14 32 31 33 45 76 31 93
-9 11 -8 18 1 29 7 9 15 13 18 11 3 -3 21 7 41 23 20 15 47 34 61 41 14 7 38
24 53 36 16 13 37 24 48 24 11 0 22 7 25 15 3 8 20 19 38 25 18 6 41 18 52 28
10 10 53 35 94 56 41 21 76 40 78 41 2 2 -9 15 -23 29 -20 21 -33 25 -60 22
-19 -3 -44 -12 -57 -20 -29 -20 -42 -20 -34 0 5 13 -5 15 -72 13 -43 -1 -89
-8 -105 -16 -26 -13 -52 -10 -43 6 3 3 -30 8 -72 9 -48 1 -78 6 -83 14 -7 10
-15 10 -41 -1 -18 -7 -60 -19 -93 -27 -33 -8 -76 -19 -95 -24 -40 -11 -58 5
-34 31 7 8 14 18 14 20 0 10 -86 2 -115 -10 -16 -7 -39 -14 -50 -16 -23 -3
-135 -46 -180 -68 -31 -16 -49 -20 -74 -18 -7 0 13 22 45 47 33 25 59 51 59
57 0 19 -92 20 -136 3 -53 -21 -73 -21 -64 2 35 85 -19 59 -75 -38 -5 -8 -19
-15 -32 -15 -13 -1 -39 -5 -59 -9 -24 -5 -52 -2 -88 10 -39 12 -68 15 -117 10
-38 -4 -64 -3 -64 3 0 5 6 12 13 14 19 8 -43 0 -93 -11 -26 -6 -55 -9 -65 -7
-11 2 -37 7 -58 10 -28 5 -37 10 -33 21 6 16 -29 20 -39 4 -4 -6 -21 -8 -41
-4 -21 4 -40 2 -49 -6 -16 -13 -59 -4 -50 11 4 5 0 9 -8 9 -8 0 -17 7 -21 15
-3 8 -1 15 5 15 6 0 8 4 4 10 -3 5 -28 0 -61 -12 -38 -15 -58 -18 -62 -11 -7
12 -167 12 -178 0 -3 -3 -1 -13 4 -23 7 -13 6 -24 -5 -41 -14 -22 -13 -27 18
-78 51 -84 170 -198 184 -175 3 5 10 10 15 10 14 0 42 -72 36 -92 -3 -14 2
-18 24 -18 23 0 31 -8 53 -49 21 -41 24 -56 17 -87 -5 -21 -15 -43 -22 -49
-17 -12 -12 -41 13 -76 9 -14 21 -38 25 -53 3 -15 17 -34 29 -42 31 -20 62
-91 47 -106 -9 -9 -8 -16 5 -30 10 -11 18 -38 19 -66 2 -46 1 -46 -9 -14 -5
17 -14 32 -19 32 -14 0 1 -82 18 -101 11 -12 14 -58 12 -228 -3 -190 -5 -213
-20 -222 -22 -12 -23 -29 -3 -29 9 0 18 -7 21 -15 4 -8 13 -15 20 -15 21 0 28
-26 15 -58 -16 -41 -20 -136 -8 -216 13 -88 -4 -207 -34 -237 -21 -21 -26 -83
-7 -95 6 -4 16 0 23 9 13 18 35 23 35 8 0 -5 -7 -15 -16 -22 -25 -20 -35 -57
-39 -138 -3 -53 1 -83 11 -103 l15 -29 -38 7 c-40 7 -87 28 -113 49 -26 21
-58 24 -107 9 -63 -19 -79 -19 -59 2 19 19 20 23 4 20 -7 -2 -29 -6 -48 -10
-19 -4 -81 -8 -137 -10 -57 -1 -106 -5 -109 -9 -4 -4 1 -16 11 -27 10 -11 16
-20 14 -21 -45 -7 -61 -4 -90 17 -37 27 -81 31 -123 9 -15 -8 -42 -15 -60 -15
-60 -1 -121 -22 -209 -72 -72 -42 -90 -49 -98 -37 -14 22 -12 25 51 80 33 29
60 55 60 58 0 9 -43 12 -50 3 -14 -20 -59 -41 -65 -31 -5 7 -12 6 -23 -4 -39
-33 -134 -56 -156 -38 -14 12 -78 1 -196 -34 -25 -7 -57 -16 -73 -19 -15 -4
-51 -21 -80 -40 -76 -49 -113 -66 -171 -81 -56 -15 -65 -13 -47 9 22 27 2 35
-36 15 -21 -10 -47 -19 -60 -19 -19 0 -72 -20 -134 -51 -12 -6 -18 -3 -22 12
-8 29 3 58 19 52 10 -4 14 3 15 23 2 41 -2 59 -12 62 -5 2 -9 15 -9 28 0 13
-4 24 -9 24 -12 0 -3 324 10 374 7 27 7 42 -1 50 -8 8 -5 15 10 26 20 15 20
17 4 55 -15 37 -16 111 -1 234 2 19 1 50 -3 68 -5 18 -4 36 1 39 18 11 10 52
-12 57 -19 5 -20 11 -15 98 3 51 1 100 -5 110 -6 12 -5 20 1 24 6 4 8 10 5 15
-5 8 24 24 31 17 2 -2 0 -17 -5 -33 -4 -16 -5 -37 -2 -47 6 -17 8 -16 19 8 15
32 16 75 2 75 -5 0 -10 10 -10 21 0 18 -5 20 -26 16 -20 -3 -27 1 -35 20 -12
31 -6 40 37 58 36 15 42 33 22 65 -10 16 -10 24 0 41 7 11 13 46 12 77 -3 165
26 304 69 334 10 7 29 35 41 61 12 26 26 47 31 47 14 0 11 28 -3 33 -10 3 -8
9 5 24 9 11 15 27 12 36 -9 22 31 93 78 140 37 36 39 41 22 47 -18 6 -18 8 5
20 40 21 84 59 101 88 8 15 31 37 50 50 36 24 79 89 72 109 -3 6 9 14 26 18
31 7 48 21 38 32 -12 11 -73 9 -105 -3 -38 -15 -161 -16 -179 -2 -7 6 -21 7
-30 2 -10 -4 -22 -8 -28 -9 -5 -1 -21 -5 -35 -10 -14 -4 -34 -9 -45 -11 -11
-1 -47 -7 -80 -12 -44 -8 -79 -8 -130 1 -43 7 -121 10 -200 7 -118 -5 -131 -7
-139 -25 -10 -22 -104 -75 -134 -75 -10 0 -29 11 -42 24 -12 14 -42 34 -67 46
-38 18 -55 20 -131 14 -82 -6 -88 -5 -107 16 -15 17 -20 34 -18 76 2 59 -3 67
-17 29z m3962 -1357 c-6 -6 -16 -7 -22 -3 -9 6 -9 9 1 16 17 10 34 0 21 -13z
m-3231 -835 c-12 -20 -14 -14 -5 12 4 9 9 14 11 11 3 -2 0 -13 -6 -23z m2899
-873 c0 -5 -10 -10 -22 -10 -19 0 -20 2 -8 10 19 13 30 13 30 0z m-1460 -96
c0 -22 -2 -24 -14 -14 -8 6 -12 18 -9 26 9 23 23 16 23 -12z m863 -701 c-8
-21 -22 -5 -16 18 4 15 8 17 13 8 5 -7 6 -18 3 -26z m-2243 -1307 c0 -3 -4 -8
-10 -11 -5 -3 -10 -1 -10 4 0 6 5 11 10 11 6 0 10 -2 10 -4z m2710 -147 c0 -5
-4 -9 -10 -9 -5 0 -10 7 -10 16 0 8 5 12 10 9 6 -3 10 -10 10 -16z m-3071
-627 c0 -10 -87 -72 -99 -72 -19 0 -10 18 23 47 29 26 78 42 76 25z m2831 -79
c-1 -5 -14 -24 -31 -43 -30 -35 -30 -35 -19 -6 12 32 51 70 50 49z"/>
<path d="M8160 8570 c0 -5 5 -10 11 -10 5 0 7 5 4 10 -3 6 -8 10 -11 10 -2 0
-4 -4 -4 -10z"/>
<path d="M7922 8159 c2 -7 10 -15 17 -17 8 -3 12 1 9 9 -2 7 -10 15 -17 17 -8
3 -12 -1 -9 -9z"/>
<path d="M6130 7951 c0 -5 5 -13 10 -16 6 -3 10 -2 10 4 0 5 -4 13 -10 16 -5
3 -10 2 -10 -4z"/>
<path d="M4360 7920 c0 -5 5 -10 10 -10 6 0 10 5 10 10 0 6 -4 10 -10 10 -5 0
-10 -4 -10 -10z"/>
<path d="M2635 7684 c-32 -35 -31 -44 3 -44 24 0 27 4 28 35 0 19 -1 35 -3 35
-2 0 -15 -12 -28 -26z"/>
<path d="M4260 7640 c0 -5 5 -10 11 -10 5 0 7 5 4 10 -3 6 -8 10 -11 10 -2 0
-4 -4 -4 -10z"/>
<path d="M4260 7180 c0 -11 2 -20 4 -20 2 0 6 9 9 20 3 11 1 20 -4 20 -5 0 -9
-9 -9 -20z"/>
<path d="M2721 6444 c-26 -33 -26 -37 -2 -58 22 -20 28 -14 37 42 8 49 -5 55
-35 16z"/>
<path d="M7610 6311 c0 -5 7 -12 16 -15 22 -9 24 -8 24 9 0 8 -9 15 -20 15
-11 0 -20 -4 -20 -9z"/>
<path d="M7570 6303 c0 -4 5 -15 10 -23 8 -13 10 -13 10 2 0 9 -4 20 -10 23
-5 3 -10 3 -10 -2z"/>
<path d="M4990 6215 c-10 -13 -9 -15 9 -15 11 0 21 4 21 9 0 18 -18 21 -30 6z"/>
<path d="M4380 6101 c0 -10 9 -21 19 -24 25 -6 30 -1 24 24 -7 25 -43 25 -43
0z"/>
<path d="M4234 6036 c-8 -21 3 -49 16 -41 5 3 10 15 10 25 0 25 -18 36 -26 16z"/>
<path d="M7659 3349 c-10 -6 -7 -9 14 -9 29 0 35 5 14 13 -8 3 -20 1 -28 -4z"/>
<path d="M7690 3204 c0 -8 5 -12 10 -9 6 3 10 10 10 16 0 5 -4 9 -10 9 -5 0
-10 -7 -10 -16z"/>
<path d="M7696 3171 c-6 -9 0 -51 9 -59 3 -3 5 11 5 31 0 37 -4 45 -14 28z"/>
<path d="M7708 3083 c-10 -3 -18 -9 -18 -14 0 -12 37 -12 45 0 7 12 -5 19 -27
14z"/>
<path d="M2660 3070 c-11 -7 -5 -10 23 -10 20 0 37 5 37 10 0 13 -40 13 -60 0z"/>
<path d="M6167 2994 c-10 -31 -16 -58 -13 -62 3 -3 6 2 6 11 0 8 3 17 8 19 14
6 41 88 29 88 -7 0 -20 -25 -30 -56z"/>
<path d="M2287 2405 c-61 -68 -63 -72 -25 -54 24 12 98 94 98 110 0 20 -17 7
-73 -56z"/>
<path d="M2267 2314 c-10 -14 -17 -30 -14 -37 2 -7 12 3 21 21 21 41 18 49 -7
16z"/>
<path d="M2181 2274 c-18 -19 -31 -38 -28 -40 6 -6 67 55 67 67 0 14 -5 11
-39 -27z"/>
<path d="M2196 2215 c-20 -25 -33 -45 -29 -44 11 1 77 79 71 84 -2 2 -21 -16
-42 -40z"/>
<path d="M4230 2145 c-20 -11 -22 -15 -9 -20 20 -8 72 12 64 25 -8 13 -25 12
-55 -5z"/>
<path d="M3130 1990 c0 -5 6 -10 14 -10 8 0 18 5 21 10 3 6 -3 10 -14 10 -12
0 -21 -4 -21 -10z"/>
</g>
</svg>
