<svg xmlns="http://www.w3.org/2000/svg" width="300" height="691" viewBox="0 0 300 301"><path d="M300 0H121.047a156.5 156.5 0 0 0-2.063 25.344c0 85.703 69.516 155.18 155.27 155.18 8.625 0 17.238-.712 25.746-2.126Zm0 0" style="stroke:none;fill-rule:nonzero;fill:#2f2e41;fill-opacity:1"/><path d="M224.258 97.008a22.4 22.4 0 0 1-7.863-1.418 1.17 1.17 0 0 1-.688-1.504 1.173 1.173 0 0 1 1.508-.688 20.45 20.45 0 0 0 20-3.324c-8.598.09-17.008-3.969-21.192-10.484-2.691-4.192-3.57-9.117-2.546-14.254a25.4 25.4 0 0 1 4.718-10.246c-9.125 2.902-14.984 11.781-14.054 21.308a1.172 1.172 0 0 1-1.648 1.184 1.17 1.17 0 0 1-.68-.953c-1.184-12.086 7.39-22.95 19.425-24.617a1.168 1.168 0 0 1 .992 1.976c-5.984 6.078-9.617 15.961-4.238 24.336 4.242 6.61 13.375 10.39 22.207 9.196.488-.067.961.175 1.192.609.23.433.168.96-.16 1.328a22.78 22.78 0 0 1-16.973 7.55m0 0" style="stroke:none;fill-rule:nonzero;fill:#6c63ff;fill-opacity:1"/><path d="M205.594 97.473c-4.742 0-8.586-3.84-8.586-8.578 0-4.735 3.844-8.575 8.586-8.575 4.738 0 8.582 3.84 8.582 8.575a8.59 8.59 0 0 1-8.582 8.578m0-14.817a6.24 6.24 0 1 0 0 12.477 6.24 6.24 0 0 0 6.242-6.238 6.25 6.25 0 0 0-6.242-6.239m0 0" style="stroke:none;fill-rule:nonzero;fill:#6c63ff;fill-opacity:1"/><path d="M3.39 221.102a4.01 4.01 0 0 1-2.765-1.813 4 4 0 0 1-.46-3.277l3.038-10.324 4.617.867.196 10.511a4.02 4.02 0 0 1-1.371 3.098 4.01 4.01 0 0 1-3.254.938m0 0" style="stroke:none;fill-rule:nonzero;fill:#9f616a;fill-opacity:1"/><path d="m30.04 287.016-5.774-.868 1.445-56.234-8.082 24.223-4.328 34.031-5.48-1.441-1.157-35.473 6.348-41.816 31.742 7.21Zm0 0" style="stroke:none;fill-rule:nonzero;fill:#2f2e41;fill-opacity:1"/><path d="M27.387 300.86a4.244 4.244 0 0 1-4.242-4.243q0-.204.023-.414l.895-9.105c.042-.442.304-.832.695-1.043 1.703-.918 3.453-.696 5.242.5.32.218.531.562.578.949l1.024 8.617a4.243 4.243 0 0 1-4.215 4.738M3.832 300.18a3.817 3.817 0 0 1-1.855-5.715l6.156-9.149c2.219-1.59 3.558-.816 4.078 2.16l1.242-3.117.942 1.024a2.98 2.98 0 0 1 .156 3.84l-6.387 9.714a3.82 3.82 0 0 1-4.332 1.243m0 0" style="stroke:none;fill-rule:nonzero;fill:#2f2e41;fill-opacity:1"/><path d="M51.39 146.566c0-4.777-3.874-8.652-8.656-8.652a8.652 8.652 0 1 0 0 17.305 8.65 8.65 0 0 0 8.657-8.653m0 0" style="stroke:none;fill-rule:nonzero;fill:#9f616a;fill-opacity:1"/><path d="M48.215 162.43 33.5 159.547c1.895-4.043 3.414-5.41 1.73-9.809h11.833c-1.043 4.559-.036 8.832 1.152 12.692m0 0" style="stroke:none;fill-rule:nonzero;fill:#9f616a;fill-opacity:1"/><path d="m46.484 220.684-34.625-9.805c6.934-15.258 8.387-32.008 6.332-49.711a3.2 3.2 0 0 1 2.813-3.555.6.6 0 0 1 .117-.011c4.516-.375 9.223-.852 14.11-1.516l5.484 3.746 6.347-1.441c2.036.988 4.09 1.808 5.942 2.625a7.423 7.423 0 0 1 4.035 9.132c-5.64 17.028-9.418 33.895-10.555 50.536m0 0" style="stroke:none;fill-rule:nonzero;fill:#e6e6e6;fill-opacity:1"/><path d="m8.684 207.707-6.637-.863 15.723-45.278c.8-2.304 2.785-3.55 5.199-3.894l2.308.289-1.73 26.82ZM60.672 199.05a5.26 5.26 0 0 1-5.262-3.222l-6.328-15.23 5.195-18.746 1.371.875q.2.123.395.257a12.34 12.34 0 0 1 5.07 12.27l-1.355 7.941 5.59 11.989a5.25 5.25 0 0 1-4.676 3.867m0 0" style="stroke:none;fill-rule:nonzero;fill:#e6e6e6;fill-opacity:1"/><path d="M43.398 133.746a9.2 9.2 0 0 1 4.204 1.234c.293.172.156.79.43.993.34.25 1.085.097 1.39.394a9.21 9.21 0 0 1 2.738 7.418l-.484 4.8-1.14-1.245a11.87 11.87 0 0 0-7.919-3.887q-.199-.013-.39-.02l.878-1.535-1.523 1.524q-1.044.01-2.078.168l1.168-2.04-2.238 2.24a5.98 5.98 0 0 0-4.18 3.405l-.25.551-.277-4.582c-.11-5.094 3.933-9.316 9.035-9.426.21-.008.425-.004.636.008m0 0" style="stroke:none;fill-rule:nonzero;fill:#2f2e41;fill-opacity:1"/><path d="M52.145 148.242c0-.914-.313-1.652-.696-1.652-.386 0-.695.738-.695 1.652 0 .91.309 1.649.695 1.649.383 0 .696-.739.696-1.649M34.762 147.719c0-.91-.313-1.649-.696-1.649-.386 0-.695.739-.695 1.649s.309 1.652.695 1.652c.383 0 .696-.742.696-1.652M67.895 169.77a4.004 4.004 0 0 1 2.781 5.344l-3.903 10.027-4.527-1.254.695-10.492a4.008 4.008 0 0 1 4.954-3.625m0 0" style="stroke:none;fill-rule:nonzero;fill:#9f616a;fill-opacity:1"/><path d="m62.645 198.48-7.215-4.617 6.062-12.398 7.5 2.883-3.75 10.957Zm0 0" style="stroke:none;fill-rule:nonzero;fill:#e6e6e6;fill-opacity:1"/><path d="M67.492 159.508V110.73h-.781v48.778a1.948 1.948 0 0 0 .39 3.86c1 0 1.84-.759 1.942-1.755a1.95 1.95 0 0 0-1.55-2.105m-.39 3.078a1.17 1.17 0 1 1-.005-2.339 1.17 1.17 0 0 1 .005 2.339m0 0" style="stroke:none;fill-rule:nonzero;fill:#3f3d56;fill-opacity:1"/><path d="M66.488 64.164c-.93 0-1.683-.754-1.683-1.68v-5.047c.004-.93.757-1.68 1.683-1.68.93 0 1.684.75 1.684 1.68v5.047c0 .926-.754 1.68-1.684 1.68M66.488 102.852c-.93 0-1.683-.754-1.683-1.684v-5.047a1.683 1.683 0 0 1 3.367 0v5.047c0 .93-.754 1.684-1.684 1.684M78.39 69.09c-.683 0-1.296-.41-1.554-1.04a1.68 1.68 0 0 1 .363-1.831l3.57-3.567a1.683 1.683 0 0 1 2.38 2.38l-3.57 3.566a1.67 1.67 0 0 1-1.188.492M51.02 96.445c-.68 0-1.293-.41-1.555-1.039a1.68 1.68 0 0 1 .363-1.832l3.57-3.566a1.683 1.683 0 0 1 2.38 2.379l-3.567 3.566a1.69 1.69 0 0 1-1.191.492M88.367 80.984H83.32c-.93 0-1.683-.754-1.683-1.683 0-.926.754-1.68 1.683-1.68h5.047a1.683 1.683 0 1 1 0 3.363M49.66 80.984h-5.047a1.683 1.683 0 1 1 0-3.363h5.047c.93 0 1.68.754 1.68 1.68 0 .93-.75 1.683-1.68 1.683M81.96 96.445c-.448 0-.874-.175-1.19-.492l-3.57-3.566a1.682 1.682 0 1 1 2.378-2.38l3.57 3.567c.48.48.625 1.203.368 1.832a1.685 1.685 0 0 1-1.555 1.04M54.59 69.09c-.445 0-.875-.176-1.192-.492l-3.57-3.567a1.683 1.683 0 1 1 2.383-2.379l3.566 3.567c.485.48.63 1.207.368 1.832a1.685 1.685 0 0 1-1.555 1.039M66.488 89.395c-5.574 0-10.097-4.52-10.097-10.094 0-5.57 4.523-10.09 10.097-10.09 5.578 0 10.098 4.52 10.098 10.09-.004 5.574-4.523 10.086-10.098 10.094m0-16.82a6.73 6.73 0 0 0-6.73 6.726 6.73 6.73 0 0 0 6.73 6.73 6.73 6.73 0 0 0 6.735-6.73 6.74 6.74 0 0 0-6.735-6.727m0 0" style="stroke:none;fill-rule:nonzero;fill:#6c63ff;fill-opacity:1"/></svg>